<svg xmlns="http://www.w3.org/2000/svg" viewBox="0 0 100 72">
  <path fill="#099cec" d="M97.9 28.5c-1.9-1.3-6.4-1.8-9.9-1.1-.4-3.4-2.4-6.4-5.9-9.1l-2-1.3-1.4 2c-1.7 2.6-2.5 6.2-2.3 9.3.1 1.1.5 3.2 1.7 4.9-1.2.7-3.6 1.6-6.8 1.6H1.5l-.2 1.1c-.7 4.4-.7 18.1 8.4 28.6 6.8 7.8 17 11.7 30.2 11.7 28.8 0 50.1-13.2 60.1-37.2 3.9.1 12.4.1 16.7-8.2.1-.2.4-.9 1.3-2.8l.5-1.2-2.6-1.3zM54.7 4.1H44.3v10h10.4V4.1zm0 11.3H44.3v10h10.4V15.4zm-11.6-11.3H32.7v10h10.4V4.1zm0 11.3H32.7v10h10.4V15.4zm-11.6 0H21.1v10h10.4V15.4zm0 11.3H21.1v10h10.4V26.7zm11.6 0H32.7v10h10.4V26.7zm11.6 0H44.3v10h10.4V26.7zm11.6 0H55.9v10h10.4V26.7zm-23.2-11.3H43.1v10h10.4V15.4z"/>
</svg>
